<?xml version="1.0" encoding="UTF-8"?>
<svg width="119px" height="32px" viewBox="0 0 119 32" version="1.1" xmlns="http://www.w3.org/2000/svg" xmlns:xlink="http://www.w3.org/1999/xlink">
    <!-- Generator: Sketch 47.1 (45422) - http://www.bohemiancoding.com/sketch -->
    <title>MaliUred-Logo</title>
    <desc>Created with Sketch.</desc>
    <defs></defs>
    <g id="Website" stroke="none" stroke-width="1" fill="none" fill-rule="evenodd">
        <g id="MaliUred-Homepage" transform="translate(-135.000000, -2958.000000)" fill="#6B7C93">
            <g id="MaliUred-Logo" transform="translate(135.000000, 2958.000000)">
                <path d="M25.1647776,30.1754182 C25.0614421,30.0799995 25.0097752,29.9527766 25.0097752,29.7937455 L25.0097752,14.1690182 C25.0097752,13.994084 25.0614421,13.8589096 25.1647776,13.7634909 C25.2681131,13.6680723 25.3992677,13.6203636 25.5582454,13.6203636 L26.1544086,13.6203636 C26.3928751,13.6203636 26.5597991,13.7237323 26.6551857,13.9304727 L32.068348,24.4741818 L37.5053568,13.9304727 C37.6166412,13.7237323 37.7835652,13.6203636 38.0061339,13.6203636 L38.5784506,13.6203636 C38.7533261,13.6203636 38.888455,13.6680723 38.9838416,13.7634909 C39.0792282,13.8589096 39.1269208,13.994084 39.1269208,14.1690182 L39.1269208,29.7937455 C39.1269208,29.9527766 39.0752539,30.0799995 38.9719184,30.1754182 C38.8685829,30.2708368 38.7374283,30.3185455 38.5784506,30.3185455 L38.1492131,30.3185455 C37.9902354,30.3185455 37.8630552,30.2708368 37.7676686,30.1754182 C37.672282,30.0799995 37.6245894,29.9527766 37.6245894,29.7937455 L37.6245894,16.8645818 L33.0699022,25.8338909 C32.9268224,26.1519531 32.6804107,26.3109818 32.3306598,26.3109818 L31.8060362,26.3109818 C31.4562853,26.3109818 31.2098736,26.1519531 31.0667937,25.8338909 L26.5121065,16.8645818 L26.5121065,29.7937455 C26.5121065,29.9527766 26.464414,30.0799995 26.3690274,30.1754182 C26.2736408,30.2708368 26.1464606,30.3185455 25.9874829,30.3185455 L25.5582454,30.3185455 C25.3992677,30.3185455 25.2681131,30.2708368 25.1647776,30.1754182 Z M43.7601271,30.08 C43.1083187,29.7619378 42.5876747,29.3325603 42.1981794,28.7918545 C41.8086841,28.2511488 41.6139394,27.6547911 41.6139394,27.0027636 C41.6139394,25.9531584 42.0391983,25.0944033 42.8897288,24.4264727 C43.7402592,23.7585421 44.8888556,23.3291646 46.3355523,23.1383273 L50.103304,22.6135273 L50.103304,21.7786182 C50.103304,20.9039471 49.8370204,20.2320508 49.3044453,19.7629091 C48.7718701,19.2937674 47.9571218,19.0592 46.860176,19.0592 C46.0493899,19.0592 45.3856681,19.2182287 44.8689907,19.5362909 C44.3523133,19.8543531 44.0224396,20.236022 43.8793598,20.6813091 C43.8157687,20.8721464 43.7402554,21.0033451 43.6528177,21.0749091 C43.56538,21.1464731 43.4501229,21.1822545 43.307043,21.1822545 L42.9731916,21.1822545 C42.8301117,21.1822545 42.7069059,21.1305702 42.6035704,21.0272 C42.5002349,20.9238298 42.448568,20.8005825 42.448568,20.6574545 C42.448568,20.3075861 42.6075432,19.8980872 42.9254986,19.4289455 C43.2434539,18.9598037 43.7362772,18.5503048 44.4039834,18.2004364 C45.0716896,17.8505679 45.8904123,17.6756364 46.860176,17.6756364 C48.5612369,17.6756364 49.769449,18.0811596 50.4848485,18.8922182 C51.200248,19.7032768 51.5579424,20.6892548 51.5579424,21.8501818 L51.5579424,29.7937455 C51.5579424,29.9527766 51.5102498,30.0799995 51.4148632,30.1754182 C51.3194766,30.2708368 51.1922964,30.3185455 51.0333187,30.3185455 L50.6279277,30.3185455 C50.46895,30.3185455 50.3417698,30.2708368 50.2463832,30.1754182 C50.1509966,30.0799995 50.103304,29.9527766 50.103304,29.7937455 L50.103304,28.6725818 C49.7535532,29.1973844 49.2408579,29.6426648 48.5652029,30.0084364 C47.8895478,30.3742079 46.9953119,30.5570909 45.8824683,30.5570909 C45.1193755,30.5570909 44.4119355,30.3980622 43.7601271,30.08 Z M48.9825171,28.0285091 C49.7297121,27.2651598 50.103304,26.1678617 50.103304,24.7365818 L50.103304,23.9255273 L47.0271017,24.3549091 C45.7234849,24.5298433 44.7378382,24.8319979 44.070132,25.2613818 C43.4024258,25.6907658 43.0685777,26.2314634 43.0685777,26.8834909 C43.0685777,27.615034 43.3746051,28.1795859 43.9866691,28.5771636 C44.5987331,28.9747414 45.3101475,29.1735273 46.1209336,29.1735273 C47.2814705,29.1735273 48.2353221,28.7918584 48.9825171,28.0285091 Z M54.7365103,30.1754182 C54.6411237,30.0799995 54.5934311,29.9527766 54.5934311,29.7937455 L54.5934311,13.9066182 C54.5934311,13.7475871 54.6411237,13.6203641 54.7365103,13.5249455 C54.8318969,13.4295268 54.9590771,13.3818182 55.1180548,13.3818182 L55.5234458,13.3818182 C55.6824235,13.3818182 55.8096037,13.4295268 55.9049903,13.5249455 C56.0003769,13.6203641 56.0480695,13.7475871 56.0480695,13.9066182 L56.0480695,29.7937455 C56.0480695,29.9527766 56.0003769,30.0799995 55.9049903,30.1754182 C55.8096037,30.2708368 55.6824235,30.3185455 55.5234458,30.3185455 L55.1180548,30.3185455 C54.9590771,30.3185455 54.8318969,30.2708368 54.7365103,30.1754182 Z M59.0597117,15.2186182 C58.9643251,15.1231995 58.9166325,14.9959766 58.9166325,14.8369455 L58.9166325,13.9304727 C58.9166325,13.7714416 58.9643251,13.6402429 59.0597117,13.5368727 C59.1550983,13.4335025 59.2822785,13.3818182 59.4412562,13.3818182 L60.3474243,13.3818182 C60.506402,13.3818182 60.6375566,13.4335025 60.7408921,13.5368727 C60.8442275,13.6402429 60.8958945,13.7714416 60.8958945,13.9304727 L60.8958945,14.8369455 C60.8958945,14.9959766 60.8442275,15.1231995 60.7408921,15.2186182 C60.6375566,15.3140368 60.506402,15.3617455 60.3474243,15.3617455 L59.4412562,15.3617455 C59.2822785,15.3617455 59.1550983,15.3140368 59.0597117,15.2186182 Z M59.3220235,30.1754182 C59.2266369,30.0799995 59.1789444,29.9527766 59.1789444,29.7937455 L59.1789444,18.4389818 C59.1789444,18.2799507 59.2266369,18.1527277 59.3220235,18.0573091 C59.4174101,17.9618904 59.5445904,17.9141818 59.703568,17.9141818 L60.108959,17.9141818 C60.2679367,17.9141818 60.3951169,17.9618904 60.4905035,18.0573091 C60.5858901,18.1527277 60.6335827,18.2799507 60.6335827,18.4389818 L60.6335827,29.7937455 C60.6335827,29.9527766 60.5858901,30.0799995 60.4905035,30.1754182 C60.3951169,30.2708368 60.2679367,30.3185455 60.108959,30.3185455 L59.703568,30.3185455 C59.5445904,30.3185455 59.4174101,30.2708368 59.3220235,30.1754182 Z" id="Mali-Copy-6"></path>
                <path d="M65.8981403,28.9111273 C64.6183701,27.8138127 63.9784946,26.1678655 63.9784946,23.9732364 L63.9784946,14.2405818 C63.9784946,14.0656476 64.034136,13.9185461 64.1454203,13.7992727 C64.2567047,13.6799994 64.3997824,13.6203636 64.5746579,13.6203636 L67.8416325,13.6203636 C68.0165079,13.6203636 68.16356,13.6799994 68.2827933,13.7992727 C68.4020265,13.9185461 68.4616422,14.0656476 68.4616422,14.2405818 L68.4616422,23.9255273 C68.4616422,24.9115201 68.6961308,25.6510036 69.1651149,26.144 C69.634099,26.6369964 70.3057695,26.8834909 71.1801466,26.8834909 C72.0545238,26.8834909 72.7261943,26.6330207 73.1951784,26.1320727 C73.6641625,25.6311248 73.898651,24.895617 73.898651,23.9255273 L73.898651,14.2405818 C73.898651,14.0656476 73.9582668,13.9185461 74.0775,13.7992727 C74.1967332,13.6799994 74.3437854,13.6203636 74.5186608,13.6203636 L77.7617889,13.6203636 C77.9366643,13.6203636 78.0837164,13.6799994 78.2029497,13.7992727 C78.3221829,13.9185461 78.3817986,14.0656476 78.3817986,14.2405818 L78.3817986,23.9732364 C78.3817986,26.1678655 77.7458975,27.8138127 76.4740762,28.9111273 C75.202255,30.0084419 73.4455782,30.5570909 71.2039932,30.5570909 C68.9465104,30.5570909 67.1779104,30.0084419 65.8981403,28.9111273 Z M81.3983847,30.1396364 C81.2791514,30.020363 81.2195357,29.8812129 81.2195357,29.7221818 L81.2195357,18.5344 C81.2195357,18.3594658 81.275177,18.2123642 81.3864614,18.0930909 C81.4977458,17.9738176 81.6408235,17.9141818 81.8156989,17.9141818 L84.7249756,17.9141818 C84.899851,17.9141818 85.0469031,17.9738176 85.1661364,18.0930909 C85.2853696,18.2123642 85.3449853,18.3594658 85.3449853,18.5344 L85.3449853,19.4408727 C85.7901228,18.9478763 86.3107668,18.5701831 86.906933,18.3077818 C87.5030993,18.0453805 88.166821,17.9141818 88.8981183,17.9141818 L89.9712121,17.9141818 C90.1460875,17.9141818 90.2891653,17.9698419 90.4004497,18.0811636 C90.511734,18.1924854 90.5673754,18.3356112 90.5673754,18.5105455 L90.5673754,21.1106909 C90.5673754,21.269722 90.511734,21.4088721 90.4004497,21.5281455 C90.2891653,21.6474188 90.1460875,21.7070545 89.9712121,21.7070545 L87.5627126,21.7070545 C86.926802,21.7070545 86.437953,21.8819861 86.096151,22.2318545 C85.7543491,22.581723 85.5834506,23.074712 85.5834506,23.7108364 L85.5834506,29.7221818 C85.5834506,29.897116 85.5238349,30.0402419 85.4046017,30.1515636 C85.2853684,30.2628854 85.1383163,30.3185455 84.9634409,30.3185455 L81.8156989,30.3185455 C81.6567213,30.3185455 81.5176179,30.2589097 81.3983847,30.1396364 Z M93.4528055,28.9946182 C92.3399619,27.9529645 91.7676509,26.438216 91.7358553,24.4503273 L91.7358553,23.7108364 C91.7994464,21.8183663 92.3876549,20.3393993 93.5004985,19.2738909 C94.6133422,18.2083826 96.1156585,17.6756364 98.0074927,17.6756364 C99.3747005,17.6756364 100.531246,17.9499609 101.477163,18.4986182 C102.42308,19.0472755 103.13052,19.8026619 103.599504,20.7648 C104.068488,21.7269381 104.302977,22.8202605 104.302977,24.0448 L104.302977,24.6411636 C104.302977,24.8160978 104.243361,24.9631994 104.124128,25.0824727 C104.004894,25.2017461 103.857842,25.2613818 103.682967,25.2613818 L96.1236168,25.2613818 L96.1236168,25.4045091 C96.1395146,26.120149 96.3064386,26.6966281 96.6243939,27.1339636 C96.9423493,27.5712992 97.3954288,27.7899636 97.9836461,27.7899636 C98.3651925,27.7899636 98.6712199,27.714425 98.9017375,27.5633455 C99.1322551,27.4122659 99.3508461,27.2174557 99.5575171,26.9789091 C99.700597,26.819878 99.8158541,26.720485 99.9032918,26.6807273 C99.9907295,26.6409695 100.129833,26.6210909 100.320606,26.6210909 L103.444501,26.6210909 C103.587581,26.6210909 103.710787,26.6648238 103.814123,26.7522909 C103.917458,26.839758 103.969125,26.9471024 103.969125,27.0743273 C103.969125,27.4878081 103.734637,27.9728457 103.265652,28.5294545 C102.796668,29.0860634 102.113075,29.5631495 101.214851,29.9607273 C100.316627,30.358305 99.2554672,30.5570909 98.0313392,30.5570909 C96.0918117,30.5570909 94.5656491,30.0362719 93.4528055,28.9946182 Z M99.9152151,22.8282182 L99.9152151,22.7805091 C99.9152151,22.0171598 99.748291,21.4247779 99.4144379,21.0033455 C99.0805848,20.581913 98.6116078,20.3712 98.0074927,20.3712 C97.4033776,20.3712 96.9383749,20.581913 96.6124707,21.0033455 C96.2865665,21.4247779 96.1236168,22.0171598 96.1236168,22.7805091 L96.1236168,22.8282182 L99.9152151,22.8282182 Z M107.462642,29.1019636 C106.580316,28.1318739 106.107364,26.7483241 106.043773,24.9512727 L106.019927,24.1163636 L106.043773,23.2576 C106.107364,21.524161 106.58429,20.1604898 107.474565,19.1665455 C108.36484,18.1726011 109.573052,17.6756364 111.099238,17.6756364 C112.530036,17.6756364 113.682607,18.1368196 114.556984,19.0592 L114.556984,13.9781818 C114.556984,13.8032476 114.6166,13.6601218 114.735833,13.5488 C114.855067,13.4374782 114.99417,13.3818182 115.153148,13.3818182 L118.22935,13.3818182 C118.404225,13.3818182 118.551278,13.4374782 118.670511,13.5488 C118.789744,13.6601218 118.84936,13.8032476 118.84936,13.9781818 L118.84936,29.7221818 C118.84936,29.897116 118.789744,30.0402419 118.670511,30.1515636 C118.551278,30.2628854 118.404225,30.3185455 118.22935,30.3185455 L115.391613,30.3185455 C115.232635,30.3185455 115.093532,30.2589097 114.974299,30.1396364 C114.855065,30.020363 114.79545,29.8812129 114.79545,29.7221818 L114.79545,28.9826909 C113.93697,30.0322962 112.704912,30.5570909 111.099238,30.5570909 C109.557154,30.5570909 108.344968,30.0720533 107.462642,29.1019636 Z M114.008514,26.5853091 C114.342367,26.1479736 114.525189,25.5953488 114.556984,24.9274182 C114.58878,24.4821311 114.604677,24.1799766 114.604677,24.0209455 C114.604677,23.8460112 114.58878,23.5518081 114.556984,23.1383273 C114.525189,22.518106 114.338393,22.0052384 113.996591,21.5997091 C113.654789,21.1941798 113.150042,20.9914182 112.482336,20.9914182 C111.766937,20.9914182 111.254242,21.2021312 110.944235,21.6235636 C110.634229,22.044996 110.455381,22.6294266 110.407688,23.3768727 L110.383842,24.1163636 L110.407688,24.8558545 C110.455381,25.6033007 110.634229,26.1877312 110.944235,26.6091636 C111.254242,27.030596 111.766937,27.2413091 112.482336,27.2413091 C113.16594,27.2413091 113.674661,27.0226446 114.008514,26.5853091 Z" id="Ured-Copy-6"></path>
                <path d="M2.99732205,10.7364585 L2.23555006,8.25495566 C2.14479865,7.95812118 2.30963621,7.64458843 2.60371517,7.55467947 C2.89779413,7.46477051 3.20977595,7.63252494 3.30052735,7.92935942 L4.1622509,10.7364585 L5.73178831,10.7364585 L4.27786697,6.2072865 C3.90377697,4.98369324 4.02971869,3.68314727 4.63242674,2.54517681 C5.233796,1.40975282 6.2330495,0.580220676 7.44625227,0.209307366 C8.65945505,-0.161605944 9.95174223,-0.0326680988 11.085221,0.572359629 C12.2212336,1.17874983 13.0529001,2.18652559 13.4269901,3.41011885 L15.6668769,10.7364585 L21.1630775,10.7364585 L21.1630775,31.9444491 L0,31.9444491 L0,10.7364585 L2.99732205,10.7364585 Z M14.5023549,10.7364585 L12.3620128,3.73571509 C12.0760749,2.80045438 11.4388266,2.02934144 10.5676092,1.56431245 C9.69666017,1.09946857 8.70488151,0.999992861 7.77491429,1.28431237 C6.84494707,1.56863188 6.07833646,2.20564772 5.61623932,3.07809814 C5.1540083,3.95080322 5.05692131,4.94647842 5.34284427,5.88169027 L6.90128611,10.7364585 L11.9785507,10.7364585 L10.3212241,5.60923459 C10.2304727,5.31240011 10.3953103,4.99886736 10.6893892,4.9089584 C10.9834682,4.81904944 11.29545,4.98680388 11.3862014,5.28363836 L13.1487739,10.7364585 L14.5023549,10.7364585 Z M2.99732205,10.7364585 L7.56993279,25.6319213 C8.05325313,27.2127909 9.1129036,28.5202717 10.5536469,29.3134634 C11.9965105,30.1078767 13.6376237,30.2865004 15.1747732,29.8165467 C16.7118259,29.3466225 17.9724853,28.2808379 18.7244581,26.8154491 C19.4754082,25.3520827 19.6227792,23.6756319 19.1394738,22.0948111 L15.6668769,10.7364585 L14.5023549,10.7364585 L18.0744965,22.4204074 C18.4712482,23.7181237 18.3503221,25.0942875 17.733948,26.2954215 C17.120307,27.491125 16.0947785,28.3598926 14.8461411,28.7416394 C13.5974552,29.123401 12.2613965,28.976643 11.0840845,28.3284887 C9.90148493,27.6774096 9.03167673,26.6040903 8.63492502,25.306374 L4.1622509,10.7364585 L2.99732205,10.7364585 Z M6.90128611,10.7364585 L5.73178831,10.7364585 L10.038439,24.1522884 C10.3357899,25.1248794 10.9680863,25.9391808 11.8188441,26.4449799 C12.6820483,26.9582472 13.6545254,27.0889492 14.5571905,26.8129768 C15.459904,26.5369896 16.1930848,25.8848156 16.6216497,24.9766148 C17.0440238,24.0815802 17.112948,23.0530011 16.8155672,22.0803123 L13.1487739,10.7364585 L11.9785507,10.7364585 L15.7505899,22.4059086 C16.1850614,23.8270006 15.4880578,25.3528951 14.2285285,25.7379718 C12.9689992,26.1230486 11.5378877,25.2477842 11.1034163,23.8266922 L6.90128611,10.7364585 Z" id="Combined-Shape" fill-rule="nonzero"></path>
            </g>
        </g>
    </g>
</svg>